# AST/ASF file generated using VICON BodyLanguage
# -----------------------------------------------
:version 1.10
:name VICON
:units
  mass 1.0
  length 0.45
  angle deg
:documentation
   .ast/.asf automatically generated from VICON data using
   VICON BodyBuilder and BodyLanguage model FoxedUp or BRILLIANT.MOD
:root
   order TX TY TZ RX RY RZ
   axis XYZ
   position 0 0 0  
   orientation 0 0 0 
:bonedata
  begin
     id 1 
     name lhipjoint
     direction 0.621036 -0.695554 0.361275 
     length 2.46325 
     axis 0 0 0  XYZ
  end
  begin
     id 2 
     name lfemur
     direction 0.34202 -0.939693 0  
     length 6.54784  
     axis 0 0 20  XYZ
    dof rx ry rz
    limits (-160.0 20.0)
           (-70.0 70.0)
           (-60.0 70.0)
  end
  begin
     id 3 
     name ltibia
     direction 0.34202 -0.939693 0   
     length 7.84737   
     axis 0 0 20   XYZ
    dof rx
    limits (-10.0 170.0)
  end
  begin
     id 4 
     name lfoot
     direction 0.0790693 -0.217241 0.97291   
     length 2.59747   
     axis -90 7.62852e-016 20   XYZ
    dof rx rz
    limits (-45.0 90.0)
           (-70.0 20.0)
  end
  begin
     id 5 
     name ltoes
     direction 1.53572e-011 -4.21898e-011 1   
     length 1.29919   
     axis -90 7.62852e-016 20   XYZ
    dof rx
    limits (-90.0 20.0)
  end
  begin
     id 6 
     name rhipjoint
     direction -0.602353 -0.708375 0.367935   
     length 2.41867  
     axis 0 0 0  XYZ 
  end
  begin
     id 7 
     name rfemur
     direction -0.34202 -0.939693 0   
     length 6.92065   
     axis 0 0 -20   XYZ
    dof rx ry rz
    limits (-160.0 20.0)
           (-70.0 70.0)
           (-70.0 60.0)
  end
  begin
     id 8 
     name rtibia
     direction -0.34202 -0.939693 0   
     length 7.88883   
     axis 0 0 -20   XYZ
    dof rx
    limits (-10.0 170.0)
 end
 begin
     id 9 
     name rfoot
     direction -0.0768692 -0.211196 0.974416   
     length 2.43714  
     axis -90 -7.62852e-016 -20   XYZ
    dof rx rz
    limits (-45.0 90.0)
           (-20.0 70.0)
  end
  begin
     id 10 
     name rtoes
     direction -1.53575e-011 -4.21933e-011 1   
     length 1.22113   
     axis -90 -7.62852e-016 -20   XYZ
    dof rx
    limits (-90.0 20.0)
  end
  begin
     id 11 
     name lowerback
     direction 0.0197937 0.98943 -0.143655   
     length 2.16931   
     axis 0 0 0   XYZ
    dof rx ry rz
    limits (-20.0 45.0)
           (-30.0 30.0)
           (-30.0 30.0)
  end
  begin
     id 12 
     name upperback
     direction -0.00183968 0.999975 0.00684288   
     length 2.17221   
     axis 0 0 0   XYZ
    dof rx ry rz
    limits (-20.0 45.0)
           (-30.0 30.0)
           (-30.0 30.0)
  end
  begin
     id 13 
     name thorax
     direction -0.00950244 0.997208 0.0740685   
     length 2.22549   
     axis 0 0 0   XYZ
    dof rx ry rz
    limits (-20.0 45.0)
           (-30.0 30.0)
           (-30.0 30.0)
  end
  begin
     id 14 
     name lowerneck
     direction 0.0218238 0.996215 0.0841425   
     length 1.77269   
     axis 0 0 0   XYZ
    dof rx ry rz
    limits (-20.0 45.0)
           (-30.0 30.0)
           (-30.0 30.0)
  end
  begin
     id 15 
     name upperneck
     direction -0.00430652 0.994214 -0.107332   
     length 1.76534   
     axis 0 0 0   XYZ
    dof rx ry rz
    limits (-20.0 45.0)
           (-30.0 30.0)
           (-30.0 30.0)
  end
  begin
     id 16
     name head
     direction -0.00328946 0.998959 -0.0454998  
     length 1.82634  
     axis 0 0 0   XYZ
    dof rx ry rz
    limits (-20.0 45.0)
           (-30.0 30.0)
           (-30.0 30.0)
  end
  begin
     id 17 
     name lclavicle
     direction 0.970962 0.239191 0.00450212  
     length 3.84872  
     axis 0 0 0   XYZ
    dof ry rz
    limits (-20.0 10.0)
           (0.0 20.0)
  end
  begin
     id 18 
     name lhumerus
     direction 1 -4.48966e-011 5.74696e-028   
     length 5.22771   
     axis 180 -30 -90   XYZ
    dof rx ry rz
    limits (-60.0 90.0)
           (-90.0 90.0)
           (-90.0 90.0)
  end
  begin
     id 19
     name lradius
     direction 1 -4.4896e-011 4.25109e-027   
     length 3.45251   
     axis 180 -30 -90   XYZ
    dof rx
    limits (-10.0 170.0)
  end
  begin
     id 20
     name lwrist
     direction 1 -4.48971e-011 1.15382e-027   
     length 1.72626   
     axis -5.52449e-016 90 90   XYZ
    dof ry
    limits (-180.0 0.0)
 end
  begin
     id 21 
     name lhand
     direction 1 -4.49034e-011 2.30765e-027   
     length 0.552119   
     axis -1.47248e-015 90 90   XYZ
    dof rx rz
    limits (-90.0 90.0)
           (-45.0 45.0)
  end
  begin
     id 22 
     name lfingers
     direction 1 -4.48951e-011 4.61529e-027   
     length 0.445133   
     axis -2.94495e-015 90 90   XYZ
    dof rx
    limits (0.0 90.0)
  end
  begin
     id 23
     name lthumb
     direction 0.707107 -6.34991e-011 0.707107   
     length 0.639124   
     axis -90 45 2.85299e-015   XYZ
    dof rx rz
    limits (-45.0 45.0)
           (-45.0 45.0)
  end
  begin
     id 24 
     name rclavicle
     direction -0.97424 0.222511 -0.0366699   
     length 3.73439  
     axis 0 0 0   XYZ 
    dof ry rz
    limits (-10.0 20.0)
           (-20.0 0.0)
  end
  begin
     id 25 
     name rhumerus
     direction -1 -4.48956e-011 -4.97258e-028  
     length 5.2398   
     axis 180 30 90   XYZ
    dof rx ry rz
    limits (-90.0 60.0)
           (-90.0 90.0)
           (-90.0 90.0)
  end
  begin
     id 26 
     name rradius
     direction -1 -4.4897e-011 -1.72611e-027   
     length 3.48042   
     axis 180 30 90   XYZ
    dof rx
    limits (-10.0 170.0)
  end
  begin
     id 27 
     name rwrist
     direction -1 -4.48976e-011 1.15382e-027   
     length 1.74021   
     axis -5.52449e-016 -90 -90   XYZ
    dof ry
    limits (-180.0 0.0)
  end
  begin
     id 28
     name rhand
     direction -1 -4.48963e-011 2.30765e-027   
     length 0.618713   
     axis -1.47248e-015 -90 -90   XYZ
    dof rx rz
    limits (-90.0 90.0)
           (-45.0 45.0)
  end
  begin
     id 29
     name rfingers
     direction -1 -4.4888e-011 4.61529e-027   
     length 0.498823   
     axis -2.94495e-015 -90 -90   XYZ
    dof rx
    limits (0.0 90.0)
  end
  begin
     id 30
     name rthumb
     direction -0.707107 -6.34968e-011 0.707107   
     length 0.716213   
     axis -90 -45 -2.85299e-015   XYZ
    dof rx rz
    limits (-45.0 45.0)
           (-45.0 45.0)
  end
:hierarchy
  begin
    root lhipjoint rhipjoint lowerback
    lhipjoint lfemur
    lfemur ltibia
    ltibia lfoot
    lfoot ltoes
    rhipjoint rfemur
    rfemur rtibia
    rtibia rfoot
    rfoot rtoes
    lowerback upperback
    upperback thorax
    thorax lowerneck lclavicle rclavicle
    lowerneck upperneck
    upperneck head
    lclavicle lhumerus
    lhumerus lradius
    lradius lwrist
    lwrist lhand lthumb
    lhand lfingers
    rclavicle rhumerus
    rhumerus rradius
    rradius rwrist
    rwrist rhand rthumb
    rhand rfingers
  end

#!OML:ASF G:\JayActor3\Patient Classification 1\Patient 1\Session 5\male.ASF
:FULLY-SPECIFIED
:DEGREES
189
root -39.2269 17.0015 -5.85385 61.0348 88.3938 36.3833
lowerback 22.2579 -0.641965 -1.95717
upperback 4.78685 -1.07453 -1.51367
thorax -7.17025 -0.352457 -0.243762
lowerneck 4.15379 -0.453227 1.84567
upperneck -14.5215 0.0171959 1.91343
head -5.04744 -0.121964 0.279804
rclavicle 1.98785e-015 -7.95139e-016
rhumerus -31.8688 -3.31012 -88.4848
rradius 32.0844
rwrist -3.41036
rhand -21.403 -7.90718
rfingers 7.12502
rthumb 4.9852 -37.8285
lclavicle 1.98785e-015 -7.95139e-016
lhumerus -34.2379 0.45765 85.6468
lradius 26.9609
lwrist 24.7132
lhand -19.5014 10.2538
lfingers 7.12502
lthumb 6.82113 40.1239
rfemur -66.257 2.33238 15.6864
rtibia 74.1486
rfoot -3.23729 -19.1397
rtoes 13.8166
lfemur -31.6579 11.471 -28.9556
ltibia 24.0173
lfoot -17.7005 -3.57639
ltoes 3.50626
190
root -39.1702 16.9935 -5.87283 67.6271 88.2693 43.2721
lowerback 22.413 -0.682786 -2.0787
upperback 4.88346 -1.15101 -1.57118
thorax -7.143 -0.383227 -0.215175
lowerneck 4.1512 -0.474821 1.84345
upperneck -14.5353 -0.011557 1.91773
head -5.05123 -0.136366 0.283125
rclavicle -2.78299e-015 -2.54444e-014
rhumerus -31.8828 -3.36246 -88.4979
rradius 32.0909
rwrist -3.39274
rhand -21.4258 -7.92074
rfingers 7.12502
rthumb 4.96325 -37.8426
lclavicle -2.78299e-015 -2.54444e-014
lhumerus -34.2144 0.561773 85.5854
lradius 26.825
lwrist 24.576
lhand -19.5333 10.2644
lfingers 7.12502
lthumb 6.7904 40.1355
rfemur -66.9492 1.91498 15.7411
rtibia 75.1374
rfoot -3.27623 -19.3272
rtoes 14.5939
lfemur -30.9625 11.3783 -29.1537
ltibia 23.8121
lfoot -17.7791 -3.47701
ltoes 3.40184
191
root -39.1106 16.9872 -5.89178 72.9283 88.1463 48.8459
lowerback 22.5592 -0.717037 -2.1696
upperback 4.9698 -1.2126 -1.62256
thorax -7.12274 -0.407706 -0.201439
lowerneck 4.15521 -0.503278 1.85241
upperneck -14.5619 -0.049439 1.91153
head -5.06012 -0.155302 0.281891
rclavicle -2.8625e-014 -3.02153e-014
rhumerus -31.9116 -3.41963 -88.505
rradius 32.0809
rwrist -3.37088
rhand -21.4548 -7.93769
rfingers 7.12502
rthumb 4.93522 -37.8602
lclavicle -2.8625e-014 -3.02153e-014
lhumerus -34.2002 0.657576 85.5345
lradius 26.7061
lwrist 24.4432
lhand -19.5483 10.2483
lfingers 7.12502
lthumb 6.77586 40.1199
rfemur -67.5804 1.4965 15.8454
rtibia 75.8698
rfoot -3.58323 -19.4775
rtoes 15.2458
lfemur -30.2662 11.2112 -29.3074
ltibia 23.5939
lfoot -17.856 -3.27691
ltoes 3.28539
192
root -39.0482 16.9819 -5.91084 76.8459 88.0306 53.0027
lowerback 22.6789 -0.742599 -2.23718
upperback 5.04925 -1.25704 -1.6599
thorax -7.09644 -0.424862 -0.190612
lowerneck 4.15663 -0.534267 1.85157
upperneck -14.5999 -0.092586 1.89604
head -5.07206 -0.175714 0.279695
rclavicle 8.74653e-015 6.36111e-015
rhumerus -31.9465 -3.4429 -88.5064
rradius 32.0645
rwrist -3.36284
rhand -21.4808 -7.96845
rfingers 7.12502
rthumb 4.91008 -37.8916
lclavicle 8.74653e-015 6.36111e-015
lhumerus -34.1958 0.761903 85.5017
lradius 26.6177
lwrist 24.3224
lhand -19.5431 10.2336
lfingers 7.12502
lthumb 6.78091 40.105
rfemur -68.1654 1.10114 15.9935
rtibia 76.3353
rfoot -4.16891 -19.5717
rtoes 15.4653
lfemur -29.5853 10.9806 -29.4186
ltibia 23.3674
lfoot -17.9298 -2.97877
ltoes 3.15695
193
root -38.9836 16.9772 -5.92996 79.6551 87.9147 56.0172
lowerback 22.7754 -0.757238 -2.29349
upperback 5.12066 -1.28474 -1.68907
thorax -7.06707 -0.434669 -0.182093
lowerneck 4.15163 -0.567735 1.84714
upperneck -14.6438 -0.141531 1.86527
head -5.08473 -0.197762 0.273676
rclavicle -2.50469e-014 -2.54444e-014
rhumerus -31.9829 -3.43564 -88.5048
rradius 32.0336
rwrist -3.35799
rhand -21.5003 -7.98895
rfingers 7.12502
rthumb 4.89124 -37.9125
lclavicle -2.50469e-014 -2.54444e-014
lhumerus -34.2066 0.869174 85.4858
lradius 26.5678
lwrist 24.2218
lhand -19.5313 10.2046
lfingers 7.12502
lthumb 6.79226 40.0756
rfemur -68.7071 0.741514 16.1616
rtibia 76.5301
rfoot -4.90599 -19.6205
rtoes 15.4763
lfemur -28.9275 10.704 -29.5074
ltibia 23.1368
lfoot -18.001 -2.61278
ltoes 3.05121
194
root -38.9172 16.9723 -5.9496 81.3251 87.784 57.8669
lowerback 22.8641 -0.760643 -2.35105
upperback 5.18019 -1.29951 -1.71906
thorax -7.04671 -0.438604 -0.177367
lowerneck 4.14745 -0.599495 1.83918
upperneck -14.6885 -0.19061 1.82006
head -5.09775 -0.218797 0.263776
rclavicle -2.22639e-014 -1.43125e-014
rhumerus -32.023 -3.39039 -88.5075
rradius 31.9866
rwrist -3.35338
rhand -21.4986 -8.00421
rfingers 7.12502
rthumb 4.89296 -37.9277
lclavicle -2.22639e-014 -1.43125e-014
lhumerus -34.2495 0.987645 85.4754
lradius 26.5659
lwrist 24.1502
lhand -19.4882 10.1883
lfingers 7.12502
lthumb 6.83393 40.058
rfemur -69.1992 0.430168 16.3201
rtibia 76.4517
rfoot -5.7775 -19.5809
rtoes 14.9766
lfemur -28.2889 10.4108 -29.5983
ltibia 22.906
lfoot -18.0727 -2.21126
ltoes 2.97932
195
root -38.8493 16.9668 -5.9694 82.2983 87.6361 58.9934
lowerback 22.9483 -0.758498 -2.41275
upperback 5.2253 -1.31017 -1.75713
thorax -7.03988 -0.440787 -0.180204
lowerneck 4.13935 -0.6298 1.83616
upperneck -14.7221 -0.239537 1.76333
head -5.10673 -0.239249 0.249456
rclavicle 3.57812e-015 7.95139e-015
rhumerus -32.0669 -3.30413 -88.5261
rradius 31.9252
rwrist -3.34399
rhand -21.4559 -8.01683
rfingers 7.12502
rthumb 4.9342 -37.9394
lclavicle 3.57812e-015 7.95139e-015
lhumerus -34.3315 1.1065 85.4626
lradius 26.6123
lwrist 24.1069
lhand -19.4227 10.2097
lfingers 7.12502
lthumb 6.89707 40.0774
rfemur -69.641 0.166137 16.4533
rtibia 76.103
rfoot -6.72576 -19.433
rtoes 14.0131
lfemur -27.6744 10.1288 -29.7064
ltibia 22.6721
lfoot -18.1405 -1.833
ltoes 2.96139
